<?xml version="1.0" standalone="no"?>
<!DOCTYPE svg PUBLIC "-//W3C//DTD SVG 20010904//EN"
 "http://www.w3.org/TR/2001/REC-SVG-20010904/DTD/svg10.dtd">
<svg version="1.0" xmlns="http://www.w3.org/2000/svg"
 width="500.000000pt" height="500.000000pt" viewBox="0 0 500.000000 500.000000"
 preserveAspectRatio="xMidYMid meet">

<g transform="translate(0.000000,500.000000) scale(0.100000,-0.100000)"
fill="#000000" stroke="none">
<path d="M2495 4329 c-27 -4 -115 -8 -195 -8 -147 0 -202 -9 -370 -58 -51 -15
-64 -23 -62 -36 2 -14 -2 -16 -20 -12 -17 4 -31 -2 -52 -24 -34 -35 -29 -71
10 -71 28 0 31 -16 8 -42 -16 -16 -15 -18 1 -24 9 -4 33 -2 53 4 19 6 39 9 44
6 13 -8 58 24 58 41 0 18 83 103 132 135 21 14 38 30 38 36 0 6 14 14 31 18
56 11 65 6 27 -15 -37 -19 -50 -39 -27 -39 25 0 -12 -26 -61 -44 -60 -21 -60
-40 -2 -44 50 -4 56 -22 8 -22 -43 0 -51 -11 -25 -33 13 -12 38 -17 82 -17 39
0 71 -6 83 -15 32 -22 67 -112 60 -153 -5 -31 -3 -33 18 -28 15 4 28 -1 39
-14 18 -21 16 -23 -21 -20 -21 1 -23 -2 -20 -31 3 -37 19 -47 41 -24 9 9 18
11 22 5 3 -5 -6 -19 -20 -32 -19 -16 -25 -31 -25 -62 0 -55 18 -116 34 -116 8
0 11 -10 8 -28 -7 -49 102 -154 143 -138 7 2 16 27 20 55 4 28 11 53 16 57 5
3 9 14 9 24 0 39 22 67 61 79 23 7 49 25 64 45 18 24 39 37 73 46 26 6 62 23
80 37 30 22 33 30 28 57 -15 71 -15 99 0 120 8 13 12 31 8 40 -5 12 -2 15 10
10 30 -12 17 21 -19 45 -39 27 -45 41 -15 41 26 0 25 8 -5 32 -30 24 -31 46
-5 92 l21 34 -36 12 c-20 7 -47 10 -61 7 -17 -3 -24 0 -24 10 0 11 -7 13 -24
9 -18 -4 -28 0 -39 18 -12 18 -31 26 -80 35 -35 6 -66 10 -68 10 -2 -1 -26 -5
-54 -10z"/>
<path d="M1660 4105 c-10 -12 -9 -16 5 -21 23 -9 40 10 22 25 -11 9 -17 8 -27
-4z"/>
<path d="M1720 4108 c0 -7 5 -20 10 -28 7 -12 12 -12 21 -3 9 9 9 16 -1 28
-15 18 -30 20 -30 3z"/>
<path d="M1710 4047 c0 -8 7 -17 15 -21 8 -3 15 -15 15 -26 0 -29 16 -32 101
-23 71 8 74 9 77 36 4 32 -18 36 -74 12 -37 -15 -69 -9 -69 15 0 10 -12 16
-32 18 -24 2 -33 -1 -33 -11z"/>
<path d="M1633 4017 c-60 -20 -34 -57 37 -53 33 2 46 7 48 19 2 10 -3 17 -11
17 -8 0 -17 7 -21 15 -6 17 -7 17 -53 2z"/>
<path d="M1533 3970 c-6 -24 -12 -25 -40 -5 -21 14 -24 13 -55 -15 -32 -29
-32 -31 -14 -45 29 -22 55 -19 100 12 23 15 43 28 44 29 2 2 1 12 -3 23 -8 27
-25 27 -32 1z"/>
<path d="M1918 3955 c-2 -3 -27 -5 -54 -6 -63 -2 -80 -11 -104 -58 -17 -34
-18 -41 -4 -51 8 -8 12 -21 8 -32 -6 -19 -1 -20 82 -17 70 3 88 0 92 -11 2 -8
14 -23 26 -32 l21 -18 -23 0 c-26 0 -40 -26 -24 -42 8 -8 18 -6 36 6 31 20 33
9 9 -45 -12 -28 -23 -39 -42 -41 -16 -2 -27 -10 -29 -22 -4 -17 0 -18 32 -13
32 5 39 2 57 -23 22 -29 94 -68 106 -57 3 4 -2 16 -12 27 -20 22 -17 24 19 10
21 -8 26 -6 31 11 5 15 -1 29 -19 48 -14 15 -26 38 -26 52 l1 24 22 -27 c28
-34 41 -35 61 -6 24 33 21 40 -35 82 -35 26 -47 41 -41 49 5 7 6 21 2 33 -9
24 -72 74 -94 74 -9 0 -22 13 -31 29 -23 46 -52 70 -67 56z"/>
<path d="M1687 3933 c-8 -8 -9 -73 -2 -73 13 0 65 62 60 71 -7 10 -48 12 -58
2z"/>
<path d="M1628 3909 c-10 -6 -18 -16 -18 -24 0 -8 -8 -18 -17 -24 -15 -8 -15
-11 -3 -26 24 -29 54 -15 61 30 8 46 1 58 -23 44z"/>
<path d="M1526 3868 c-9 -12 -16 -30 -16 -39 0 -29 -12 -28 -51 3 -34 27 -43
30 -66 22 -33 -11 -73 -67 -73 -102 0 -24 1 -24 25 -8 22 15 25 15 33 -1 6
-10 16 -14 26 -10 9 4 16 2 16 -3 0 -5 -9 -12 -20 -15 -39 -12 -15 -48 34 -49
20 -1 44 -31 33 -42 -3 -4 -13 -2 -21 5 -8 7 -25 9 -42 5 -23 -6 -26 -4 -21 9
8 21 -30 32 -71 23 -15 -4 -38 -9 -52 -11 -14 -2 -33 -14 -44 -27 -10 -13 -37
-27 -60 -33 -37 -9 -44 -16 -68 -65 -47 -97 -100 -269 -93 -301 8 -37 23 -37
31 -1 12 55 15 61 36 68 26 8 45 -14 54 -64 4 -18 13 -36 20 -39 8 -3 14 -11
14 -18 0 -7 7 -26 15 -41 8 -16 15 -40 15 -54 0 -15 6 -32 13 -39 8 -8 11 -40
10 -96 -2 -97 13 -151 57 -206 16 -21 38 -59 48 -85 24 -62 74 -146 90 -152
16 -5 15 18 -2 37 -23 28 -70 114 -59 110 12 -4 123 -167 123 -180 0 -29 104
-109 142 -109 7 0 27 -7 43 -16 17 -9 47 -25 68 -36 21 -11 58 -39 81 -64 35
-36 49 -44 78 -44 58 0 72 -59 24 -100 -9 -7 -16 -28 -16 -49 0 -49 86 -163
150 -201 49 -29 49 -28 41 -185 -4 -83 6 -112 41 -119 43 -9 41 -9 82 23 20
16 51 33 69 36 18 4 39 13 47 20 8 7 25 16 37 19 12 4 38 26 59 49 44 49 70
66 102 67 30 0 69 43 82 89 5 20 25 52 45 71 19 19 35 42 35 52 0 22 -46 47
-108 58 -109 21 -144 35 -157 66 -16 39 -36 54 -82 61 -21 4 -63 24 -94 45
-44 29 -66 38 -100 38 -24 1 -59 9 -78 19 -36 19 -43 18 -104 -23 -22 -15 -30
-16 -42 -6 -8 7 -22 10 -31 6 -30 -11 -53 12 -56 57 -3 39 -5 43 -40 51 -37 9
-38 10 -38 58 0 56 -18 64 -56 23 -51 -55 -104 -6 -104 97 0 53 2 59 28 72 19
9 34 11 51 4 16 -5 28 -5 35 2 5 5 29 10 53 10 42 0 44 -2 66 -47 38 -79 66
-59 32 23 -17 42 -11 60 38 97 23 18 41 44 56 86 14 39 33 69 51 82 16 12 31
32 34 44 3 13 21 30 40 39 42 20 57 20 50 1 -7 -17 16 -21 33 -4 5 5 25 18 43
27 44 22 50 42 13 42 -39 0 -75 27 -68 50 13 42 -34 32 -87 -18 -35 -32 -36
-17 -3 21 32 36 79 51 99 31 20 -19 50 -19 42 1 -3 10 1 15 12 15 10 0 28 7
40 16 38 26 39 11 7 -68 -6 -14 -2 -18 16 -18 13 -1 35 -7 49 -15 49 -28 62
-14 38 37 -7 15 -20 29 -29 31 -13 4 -15 14 -12 53 4 40 1 54 -16 73 -12 13
-21 28 -21 33 0 4 -8 8 -18 8 -25 0 -62 41 -62 69 0 32 -38 101 -55 101 -8 0
-15 -8 -15 -19 0 -27 -24 -43 -54 -35 -22 5 -24 10 -19 36 5 24 0 35 -28 64
-26 27 -41 34 -70 34 -21 0 -40 -3 -43 -8 -7 -12 -7 -142 0 -189 5 -36 3 -43
-16 -53 -20 -11 -22 -18 -16 -56 6 -48 -3 -60 -34 -44 -15 8 -20 21 -20 51 0
29 -5 41 -17 45 -51 15 -145 66 -150 82 -4 9 -12 21 -20 25 -7 4 -13 17 -13
28 0 29 37 97 60 109 11 6 20 15 20 19 0 5 16 25 35 44 l36 36 -3 -27 c-3 -26
-1 -27 40 -27 53 0 61 9 34 38 -25 28 -25 56 0 83 14 16 18 33 16 65 -3 39 -6
44 -28 47 -22 3 -27 -3 -39 -43 -8 -26 -18 -44 -25 -42 -6 3 -10 10 -8 17 2 7
0 20 -3 28 -4 11 -8 12 -19 3 -16 -13 -26 3 -32 52 -7 54 -32 64 -54 21 -11
-20 -12 -29 -2 -44 17 -28 15 -33 -13 -26 -21 5 -27 1 -39 -29 -12 -29 -20
-35 -45 -35 -38 0 -50 17 -17 26 30 7 45 63 21 77 -17 9 -21 72 -5 82 13 8 13
35 1 35 -6 0 -17 -10 -25 -22z"/>
<path d="M2873 3626 c-4 -5 -1 -12 5 -14 7 -2 12 -12 12 -22 0 -32 34 -63 69
-63 31 0 81 35 81 58 0 32 -26 46 -93 49 -39 1 -71 -2 -74 -8z"/>
<path d="M1793 2474 c-23 -10 -14 -24 16 -24 15 0 49 -11 75 -25 51 -27 80
-32 74 -12 -9 27 -135 74 -165 61z"/>
<path d="M1984 2395 c-16 -13 -17 -16 -4 -25 20 -13 46 -13 72 1 21 11 21 12
3 25 -24 18 -46 18 -71 -1z"/>
<path d="M1757 993 c-4 -3 -7 -84 -7 -180 l0 -173 40 0 40 0 0 65 c0 61 1 65
23 65 18 0 29 -13 55 -65 l32 -65 45 0 45 0 -41 65 -41 65 30 28 c57 54 48
153 -17 186 -30 16 -190 23 -204 9z m177 -85 c7 -18 6 -35 -2 -53 -10 -21 -18
-25 -57 -25 l-45 0 0 56 0 55 47 -3 c42 -3 49 -7 57 -30z"/>
<path d="M3965 991 c-37 -16 -60 -51 -60 -91 0 -48 21 -72 91 -105 62 -29 80
-53 60 -81 -13 -17 -19 -17 -76 -6 -34 7 -64 12 -65 10 -2 -2 -6 -15 -10 -29
-6 -24 -3 -28 27 -37 36 -12 64 -15 116 -13 52 2 92 47 92 104 0 51 -14 67
-99 112 -39 21 -56 36 -56 50 0 18 7 20 67 20 66 0 68 1 74 28 3 16 3 31 0 34
-10 10 -140 13 -161 4z"/>
<path d="M1060 815 l0 -175 105 0 105 0 0 35 0 35 -70 0 -70 0 0 40 0 40 65 0
65 0 0 30 c0 29 -1 29 -62 32 l-63 3 -3 38 -3 37 70 0 71 0 0 30 0 30 -105 0
-105 0 0 -175z"/>
<path d="M1431 923 c-11 -38 -32 -111 -47 -163 -15 -52 -29 -101 -31 -107 -4
-9 7 -13 36 -13 39 0 41 2 51 40 11 40 11 40 59 40 47 0 48 -1 60 -40 11 -38
14 -40 50 -40 l38 0 -50 175 -50 175 -48 0 -48 0 -20 -67z m88 -71 c15 -72 15
-72 -19 -72 -34 0 -35 3 -19 84 14 66 22 63 38 -12z"/>
<path d="M2110 960 c0 -29 1 -30 50 -30 l50 0 0 -145 0 -145 40 0 40 0 0 145
0 145 50 0 c49 0 50 1 50 30 l0 30 -140 0 -140 0 0 -30z"/>
<path d="M2490 815 l0 -175 35 0 35 0 0 75 0 75 60 0 60 0 0 -75 0 -75 40 0
40 0 0 175 0 175 -40 0 -40 0 0 -70 0 -70 -60 0 -60 0 0 70 0 70 -35 0 -35 0
0 -175z"/>
<path d="M2910 815 l0 -175 105 0 105 0 0 35 0 35 -70 0 -70 0 0 40 0 40 60 0
60 0 0 30 0 30 -60 0 -60 0 0 40 0 40 70 0 70 0 0 30 0 30 -105 0 -105 0 0
-175z"/>
<path d="M3295 978 c-2 -7 -23 -78 -45 -158 -23 -80 -43 -153 -46 -162 -4 -15
1 -18 34 -18 38 0 40 2 49 38 8 36 10 37 59 40 l50 3 10 -38 c8 -35 12 -38 48
-41 36 -3 38 -2 33 20 -3 13 -25 92 -49 175 l-43 153 -48 0 c-29 0 -49 -5 -52
-12z m70 -125 c19 -76 19 -73 -14 -73 -17 0 -32 3 -34 8 -5 9 24 135 30 129 2
-3 11 -31 18 -64z"/>
<path d="M3550 960 c0 -29 1 -30 50 -30 l50 0 0 -145 0 -145 35 0 35 0 0 145
0 145 50 0 c49 0 50 1 50 30 l0 30 -135 0 -135 0 0 -30z"/>
</g>
</svg>
